<mxfile host="Electron" agent="Mozilla/5.0 (X11; Linux x86_64) AppleWebKit/537.36 (KHTML, like Gecko) draw.io/28.1.2 Chrome/138.0.7204.243 Electron/37.4.0 Safari/537.36" version="28.1.2">
  <diagram name="Página-1" id="JNNobukTDUmdVEI4_yEr">
    <mxGraphModel dx="551" dy="631" grid="1" gridSize="10" guides="1" tooltips="1" connect="1" arrows="1" fold="1" page="1" pageScale="1" pageWidth="827" pageHeight="1169" math="0" shadow="0">
      <root>
        <mxCell id="0" />
        <mxCell id="1" parent="0" />
        <mxCell id="XYHdMVv9o29WyOmpMLez-1" value="&lt;font style=&quot;font-size: 14px;&quot;&gt;&lt;strong style=&quot;&quot; id=&quot;yui_3_17_2_1_1758032268555_20&quot;&gt;Descripción:&lt;/strong&gt; Luz &lt;br&gt;tiene una tienda de ropa que ha crecido mucho últimamente, y ahora le &lt;br&gt;cuesta llevar un control manual de los productos que tiene en &lt;br&gt;inventario. Quiere una aplicación que le permita gestionar el inventario&lt;br&gt; de su tienda. Quiere registrar los productos que tiene, como las &lt;br&gt;camisetas, pantalones y vestidos, y necesita saber cuántas unidades hay &lt;br&gt;de cada uno. También quiere registrar de qué talla y color son, y cuánto&lt;br&gt; cuestan. Además, le gustaría llevar un registro de las ventas que hace:&lt;br&gt; qué productos ha vendido, cuántas unidades y a quién se lo vendió &lt;br&gt;(porque tiene clientes frecuentes). Sería ideal que la app le permitiera&lt;br&gt; ver informes para saber cuáles son los productos más vendidos y cuáles &lt;br&gt;son los que menos se venden, así puede decidir qué reponer en el &lt;br&gt;inventario.&lt;/font&gt;" style="text;whiteSpace=wrap;html=1;" vertex="1" parent="1">
          <mxGeometry width="470" height="230" as="geometry" />
        </mxCell>
        <mxCell id="XYHdMVv9o29WyOmpMLez-3" value="&lt;p id=&quot;yui_3_17_2_1_1758032268555_25&quot;&gt;&lt;strong&gt;&lt;font style=&quot;font-size: 14px;&quot;&gt;Puntos clave:&lt;/font&gt;&lt;/strong&gt;&lt;/p&gt;&lt;font style=&quot;font-size: 14px;&quot;&gt;&lt;br&gt;&lt;/font&gt;&lt;ul&gt;&lt;font style=&quot;font-size: 14px;&quot;&gt;&lt;br&gt;&lt;/font&gt;&lt;li&gt;&lt;font style=&quot;font-size: 14px;&quot;&gt;Productos con características como nombre, talla, color, precio.&lt;/font&gt;&lt;/li&gt;&lt;font style=&quot;font-size: 14px;&quot;&gt;&lt;br&gt;&lt;/font&gt;&lt;li&gt;&lt;font style=&quot;font-size: 14px;&quot;&gt;Control de inventario (cantidad disponible).&lt;/font&gt;&lt;/li&gt;&lt;font style=&quot;font-size: 14px;&quot;&gt;&lt;br&gt;&lt;/font&gt;&lt;li&gt;&lt;font style=&quot;font-size: 14px;&quot;&gt;Registro de ventas (cliente, fecha, producto vendido, cantidad, precio de venta).&lt;/font&gt;&lt;/li&gt;&lt;font style=&quot;font-size: 14px;&quot;&gt;&lt;br&gt;&lt;/font&gt;&lt;li&gt;&lt;font style=&quot;font-size: 14px;&quot;&gt;Informes de productos más vendidos.&lt;/font&gt;&lt;/li&gt;&lt;br&gt;&lt;/ul&gt;" style="text;whiteSpace=wrap;html=1;" vertex="1" parent="1">
          <mxGeometry x="470" width="500" height="230" as="geometry" />
        </mxCell>
        <mxCell id="XYHdMVv9o29WyOmpMLez-28" style="edgeStyle=none;shape=connector;rounded=0;orthogonalLoop=1;jettySize=auto;html=1;exitX=0.5;exitY=0;exitDx=0;exitDy=0;entryX=0.5;entryY=1;entryDx=0;entryDy=0;strokeColor=default;align=center;verticalAlign=middle;fontFamily=Helvetica;fontSize=11;fontColor=default;labelBackgroundColor=default;endArrow=none;endFill=0;" edge="1" parent="1" source="XYHdMVv9o29WyOmpMLez-5" target="XYHdMVv9o29WyOmpMLez-16">
          <mxGeometry relative="1" as="geometry" />
        </mxCell>
        <mxCell id="XYHdMVv9o29WyOmpMLez-5" value="Producto (prenda)" style="whiteSpace=wrap;html=1;align=center;" vertex="1" parent="1">
          <mxGeometry x="240" y="410" width="100" height="40" as="geometry" />
        </mxCell>
        <mxCell id="XYHdMVv9o29WyOmpMLez-32" style="edgeStyle=none;shape=connector;rounded=0;orthogonalLoop=1;jettySize=auto;html=1;exitX=0.5;exitY=1;exitDx=0;exitDy=0;strokeColor=default;align=center;verticalAlign=middle;fontFamily=Helvetica;fontSize=11;fontColor=default;labelBackgroundColor=default;endArrow=none;endFill=0;" edge="1" parent="1" source="XYHdMVv9o29WyOmpMLez-6">
          <mxGeometry relative="1" as="geometry">
            <mxPoint x="290" y="410" as="targetPoint" />
          </mxGeometry>
        </mxCell>
        <mxCell id="XYHdMVv9o29WyOmpMLez-6" value="Tipo" style="ellipse;whiteSpace=wrap;html=1;align=center;" vertex="1" parent="1">
          <mxGeometry x="190" y="290" width="100" height="40" as="geometry" />
        </mxCell>
        <mxCell id="XYHdMVv9o29WyOmpMLez-35" style="edgeStyle=none;shape=connector;rounded=0;orthogonalLoop=1;jettySize=auto;html=1;exitX=0.5;exitY=1;exitDx=0;exitDy=0;entryX=0.5;entryY=0;entryDx=0;entryDy=0;strokeColor=default;align=center;verticalAlign=middle;fontFamily=Helvetica;fontSize=11;fontColor=default;labelBackgroundColor=default;endArrow=none;endFill=0;" edge="1" parent="1" source="XYHdMVv9o29WyOmpMLez-10" target="XYHdMVv9o29WyOmpMLez-5">
          <mxGeometry relative="1" as="geometry" />
        </mxCell>
        <mxCell id="XYHdMVv9o29WyOmpMLez-10" value="Color" style="ellipse;whiteSpace=wrap;html=1;align=center;" vertex="1" parent="1">
          <mxGeometry x="310" y="290" width="100" height="40" as="geometry" />
        </mxCell>
        <mxCell id="XYHdMVv9o29WyOmpMLez-36" style="edgeStyle=none;shape=connector;rounded=0;orthogonalLoop=1;jettySize=auto;html=1;exitX=0.5;exitY=1;exitDx=0;exitDy=0;entryX=0.5;entryY=0;entryDx=0;entryDy=0;strokeColor=default;align=center;verticalAlign=middle;fontFamily=Helvetica;fontSize=11;fontColor=default;labelBackgroundColor=default;endArrow=none;endFill=0;" edge="1" parent="1" source="XYHdMVv9o29WyOmpMLez-11" target="XYHdMVv9o29WyOmpMLez-5">
          <mxGeometry relative="1" as="geometry" />
        </mxCell>
        <mxCell id="XYHdMVv9o29WyOmpMLez-11" value="Precio" style="ellipse;whiteSpace=wrap;html=1;align=center;" vertex="1" parent="1">
          <mxGeometry x="420" y="290" width="100" height="40" as="geometry" />
        </mxCell>
        <mxCell id="XYHdMVv9o29WyOmpMLez-26" style="edgeStyle=none;shape=connector;rounded=0;orthogonalLoop=1;jettySize=auto;html=1;exitX=0.5;exitY=0;exitDx=0;exitDy=0;entryX=0.5;entryY=1;entryDx=0;entryDy=0;strokeColor=default;align=center;verticalAlign=middle;fontFamily=Helvetica;fontSize=11;fontColor=default;labelBackgroundColor=default;endArrow=none;endFill=0;" edge="1" parent="1" source="XYHdMVv9o29WyOmpMLez-12" target="XYHdMVv9o29WyOmpMLez-19">
          <mxGeometry relative="1" as="geometry" />
        </mxCell>
        <mxCell id="XYHdMVv9o29WyOmpMLez-12" value="Pedido" style="whiteSpace=wrap;html=1;align=center;" vertex="1" parent="1">
          <mxGeometry x="240" y="565" width="100" height="40" as="geometry" />
        </mxCell>
        <mxCell id="XYHdMVv9o29WyOmpMLez-21" style="rounded=0;orthogonalLoop=1;jettySize=auto;html=1;exitX=0.5;exitY=0;exitDx=0;exitDy=0;entryX=0.5;entryY=1;entryDx=0;entryDy=0;endArrow=none;endFill=0;" edge="1" parent="1" source="XYHdMVv9o29WyOmpMLez-13" target="XYHdMVv9o29WyOmpMLez-20">
          <mxGeometry relative="1" as="geometry" />
        </mxCell>
        <mxCell id="XYHdMVv9o29WyOmpMLez-13" value="Cliente" style="whiteSpace=wrap;html=1;align=center;" vertex="1" parent="1">
          <mxGeometry x="240" y="780" width="100" height="40" as="geometry" />
        </mxCell>
        <mxCell id="XYHdMVv9o29WyOmpMLez-16" value="ID" style="ellipse;whiteSpace=wrap;html=1;align=center;" vertex="1" parent="1">
          <mxGeometry x="80" y="290" width="100" height="40" as="geometry" />
        </mxCell>
        <mxCell id="XYHdMVv9o29WyOmpMLez-29" style="edgeStyle=none;shape=connector;rounded=0;orthogonalLoop=1;jettySize=auto;html=1;exitX=1;exitY=0.5;exitDx=0;exitDy=0;entryX=0;entryY=0.5;entryDx=0;entryDy=0;strokeColor=default;align=center;verticalAlign=middle;fontFamily=Helvetica;fontSize=11;fontColor=default;labelBackgroundColor=default;endArrow=none;endFill=0;" edge="1" parent="1" source="XYHdMVv9o29WyOmpMLez-17" target="XYHdMVv9o29WyOmpMLez-12">
          <mxGeometry relative="1" as="geometry" />
        </mxCell>
        <mxCell id="XYHdMVv9o29WyOmpMLez-17" value="ID" style="ellipse;whiteSpace=wrap;html=1;align=center;" vertex="1" parent="1">
          <mxGeometry x="70" y="545" width="100" height="40" as="geometry" />
        </mxCell>
        <mxCell id="XYHdMVv9o29WyOmpMLez-30" style="edgeStyle=none;shape=connector;rounded=0;orthogonalLoop=1;jettySize=auto;html=1;exitX=1;exitY=0.5;exitDx=0;exitDy=0;entryX=0;entryY=0.5;entryDx=0;entryDy=0;strokeColor=default;align=center;verticalAlign=middle;fontFamily=Helvetica;fontSize=11;fontColor=default;labelBackgroundColor=default;endArrow=none;endFill=0;" edge="1" parent="1" source="XYHdMVv9o29WyOmpMLez-18" target="XYHdMVv9o29WyOmpMLez-13">
          <mxGeometry relative="1" as="geometry" />
        </mxCell>
        <mxCell id="XYHdMVv9o29WyOmpMLez-18" value="ID" style="ellipse;whiteSpace=wrap;html=1;align=center;" vertex="1" parent="1">
          <mxGeometry x="100" y="780" width="100" height="40" as="geometry" />
        </mxCell>
        <mxCell id="XYHdMVv9o29WyOmpMLez-27" style="edgeStyle=none;shape=connector;rounded=0;orthogonalLoop=1;jettySize=auto;html=1;exitX=0.5;exitY=0;exitDx=0;exitDy=0;entryX=0.5;entryY=1;entryDx=0;entryDy=0;strokeColor=default;align=center;verticalAlign=middle;fontFamily=Helvetica;fontSize=11;fontColor=default;labelBackgroundColor=default;endArrow=none;endFill=0;" edge="1" parent="1" source="XYHdMVv9o29WyOmpMLez-19" target="XYHdMVv9o29WyOmpMLez-5">
          <mxGeometry relative="1" as="geometry" />
        </mxCell>
        <mxCell id="XYHdMVv9o29WyOmpMLez-19" value="Contiene" style="shape=rhombus;perimeter=rhombusPerimeter;whiteSpace=wrap;html=1;align=center;" vertex="1" parent="1">
          <mxGeometry x="230" y="470" width="120" height="60" as="geometry" />
        </mxCell>
        <mxCell id="XYHdMVv9o29WyOmpMLez-25" style="edgeStyle=none;shape=connector;rounded=0;orthogonalLoop=1;jettySize=auto;html=1;exitX=0.5;exitY=0;exitDx=0;exitDy=0;entryX=0.5;entryY=1;entryDx=0;entryDy=0;strokeColor=default;align=center;verticalAlign=middle;fontFamily=Helvetica;fontSize=11;fontColor=default;labelBackgroundColor=default;endArrow=none;endFill=0;" edge="1" parent="1" source="XYHdMVv9o29WyOmpMLez-20" target="XYHdMVv9o29WyOmpMLez-12">
          <mxGeometry relative="1" as="geometry" />
        </mxCell>
        <mxCell id="XYHdMVv9o29WyOmpMLez-20" value="Hace" style="shape=rhombus;perimeter=rhombusPerimeter;whiteSpace=wrap;html=1;align=center;" vertex="1" parent="1">
          <mxGeometry x="230" y="670" width="120" height="60" as="geometry" />
        </mxCell>
        <mxCell id="XYHdMVv9o29WyOmpMLez-39" style="edgeStyle=none;shape=connector;rounded=0;orthogonalLoop=1;jettySize=auto;html=1;exitX=1;exitY=0.5;exitDx=0;exitDy=0;entryX=0;entryY=0.5;entryDx=0;entryDy=0;strokeColor=default;align=center;verticalAlign=middle;fontFamily=Helvetica;fontSize=11;fontColor=default;labelBackgroundColor=default;endArrow=none;endFill=0;" edge="1" parent="1" source="XYHdMVv9o29WyOmpMLez-37" target="XYHdMVv9o29WyOmpMLez-12">
          <mxGeometry relative="1" as="geometry" />
        </mxCell>
        <mxCell id="XYHdMVv9o29WyOmpMLez-37" value="Unidades" style="ellipse;whiteSpace=wrap;html=1;align=center;" vertex="1" parent="1">
          <mxGeometry x="70" y="600" width="100" height="40" as="geometry" />
        </mxCell>
        <mxCell id="XYHdMVv9o29WyOmpMLez-44" style="edgeStyle=none;shape=connector;rounded=0;orthogonalLoop=1;jettySize=auto;html=1;exitX=0.5;exitY=0;exitDx=0;exitDy=0;entryX=0.5;entryY=1;entryDx=0;entryDy=0;strokeColor=default;align=center;verticalAlign=middle;fontFamily=Helvetica;fontSize=11;fontColor=default;labelBackgroundColor=default;endArrow=none;endFill=0;" edge="1" parent="1" source="XYHdMVv9o29WyOmpMLez-40" target="XYHdMVv9o29WyOmpMLez-13">
          <mxGeometry relative="1" as="geometry" />
        </mxCell>
        <mxCell id="XYHdMVv9o29WyOmpMLez-40" value="Nombre" style="ellipse;whiteSpace=wrap;html=1;align=center;" vertex="1" parent="1">
          <mxGeometry x="185" y="840" width="100" height="40" as="geometry" />
        </mxCell>
        <mxCell id="XYHdMVv9o29WyOmpMLez-45" style="edgeStyle=none;shape=connector;rounded=0;orthogonalLoop=1;jettySize=auto;html=1;exitX=0.5;exitY=0;exitDx=0;exitDy=0;strokeColor=default;align=center;verticalAlign=middle;fontFamily=Helvetica;fontSize=11;fontColor=default;labelBackgroundColor=default;endArrow=none;endFill=0;" edge="1" parent="1" source="XYHdMVv9o29WyOmpMLez-41">
          <mxGeometry relative="1" as="geometry">
            <mxPoint x="290" y="820" as="targetPoint" />
          </mxGeometry>
        </mxCell>
        <mxCell id="XYHdMVv9o29WyOmpMLez-41" value="Apellidos" style="ellipse;whiteSpace=wrap;html=1;align=center;" vertex="1" parent="1">
          <mxGeometry x="300" y="840" width="100" height="40" as="geometry" />
        </mxCell>
        <mxCell id="XYHdMVv9o29WyOmpMLez-46" value="Inventario" style="whiteSpace=wrap;html=1;align=center;" vertex="1" parent="1">
          <mxGeometry x="480" y="400" width="100" height="40" as="geometry" />
        </mxCell>
        <mxCell id="XYHdMVv9o29WyOmpMLez-48" value="pplñlñlñiñl" style="shape=rhombus;perimeter=rhombusPerimeter;whiteSpace=wrap;html=1;align=center;" vertex="1" parent="1">
          <mxGeometry x="370" y="470" width="120" height="60" as="geometry" />
        </mxCell>
      </root>
    </mxGraphModel>
  </diagram>
</mxfile>
